<mxfile host="Electron" modified="2023-12-02T17:31:37.899Z" agent="Mozilla/5.0 (Macintosh; Intel Mac OS X 10_15_7) AppleWebKit/537.36 (KHTML, like Gecko) draw.io/22.1.2 Chrome/114.0.5735.289 Electron/25.9.4 Safari/537.36" etag="f7SfOIZ-5PupvmvKtGHZ" version="22.1.2" type="device">
  <diagram name="第 1 页" id="oqQKDCnY7gUP2br9U-KO">
    <mxGraphModel dx="1257" dy="867" grid="1" gridSize="10" guides="1" tooltips="1" connect="1" arrows="1" fold="1" page="1" pageScale="1" pageWidth="1169" pageHeight="827" math="0" shadow="0">
      <root>
        <mxCell id="0" />
        <mxCell id="1" parent="0" />
        <mxCell id="MXZ9EjxYsxfjvZ3NN5oX-1" value="IDLE" style="rounded=0;whiteSpace=wrap;html=1;fontSize=16;" vertex="1" parent="1">
          <mxGeometry x="80.05000000000001" y="80" width="120" height="40" as="geometry" />
        </mxCell>
        <mxCell id="MXZ9EjxYsxfjvZ3NN5oX-9" style="edgeStyle=orthogonalEdgeStyle;rounded=0;orthogonalLoop=1;jettySize=auto;html=1;exitX=0.5;exitY=1;exitDx=0;exitDy=0;entryX=0.5;entryY=0;entryDx=0;entryDy=0;strokeWidth=1;" edge="1" parent="1" source="MXZ9EjxYsxfjvZ3NN5oX-2" target="MXZ9EjxYsxfjvZ3NN5oX-3">
          <mxGeometry relative="1" as="geometry" />
        </mxCell>
        <mxCell id="MXZ9EjxYsxfjvZ3NN5oX-2" value="LOAD" style="rounded=0;whiteSpace=wrap;html=1;fontSize=16;" vertex="1" parent="1">
          <mxGeometry x="80.05000000000001" y="160" width="120" height="40" as="geometry" />
        </mxCell>
        <mxCell id="MXZ9EjxYsxfjvZ3NN5oX-12" style="edgeStyle=orthogonalEdgeStyle;rounded=0;orthogonalLoop=1;jettySize=auto;html=1;entryX=1;entryY=0.5;entryDx=0;entryDy=0;" edge="1" parent="1" source="MXZ9EjxYsxfjvZ3NN5oX-3" target="MXZ9EjxYsxfjvZ3NN5oX-3">
          <mxGeometry relative="1" as="geometry">
            <mxPoint x="220.05000000000013" y="230" as="targetPoint" />
          </mxGeometry>
        </mxCell>
        <mxCell id="MXZ9EjxYsxfjvZ3NN5oX-13" value="Enable &amp;amp; count &amp;gt; 1" style="edgeLabel;html=1;align=center;verticalAlign=middle;resizable=0;points=[];" vertex="1" connectable="0" parent="MXZ9EjxYsxfjvZ3NN5oX-12">
          <mxGeometry x="-0.2094" relative="1" as="geometry">
            <mxPoint x="17" y="1" as="offset" />
          </mxGeometry>
        </mxCell>
        <mxCell id="MXZ9EjxYsxfjvZ3NN5oX-14" style="edgeStyle=orthogonalEdgeStyle;rounded=0;orthogonalLoop=1;jettySize=auto;html=1;entryX=0;entryY=0.5;entryDx=0;entryDy=0;" edge="1" parent="1" source="MXZ9EjxYsxfjvZ3NN5oX-3" target="MXZ9EjxYsxfjvZ3NN5oX-1">
          <mxGeometry relative="1" as="geometry">
            <Array as="points">
              <mxPoint x="40.05000000000001" y="260" />
              <mxPoint x="40.05000000000001" y="100" />
            </Array>
          </mxGeometry>
        </mxCell>
        <mxCell id="MXZ9EjxYsxfjvZ3NN5oX-15" value="～Enable" style="edgeLabel;html=1;align=center;verticalAlign=middle;resizable=0;points=[];" vertex="1" connectable="0" parent="MXZ9EjxYsxfjvZ3NN5oX-14">
          <mxGeometry x="0.0458" y="1" relative="1" as="geometry">
            <mxPoint y="6" as="offset" />
          </mxGeometry>
        </mxCell>
        <mxCell id="MXZ9EjxYsxfjvZ3NN5oX-16" style="edgeStyle=orthogonalEdgeStyle;rounded=0;orthogonalLoop=1;jettySize=auto;html=1;exitX=0.5;exitY=1;exitDx=0;exitDy=0;entryX=0.5;entryY=0;entryDx=0;entryDy=0;" edge="1" parent="1" source="MXZ9EjxYsxfjvZ3NN5oX-3" target="MXZ9EjxYsxfjvZ3NN5oX-4">
          <mxGeometry relative="1" as="geometry" />
        </mxCell>
        <mxCell id="MXZ9EjxYsxfjvZ3NN5oX-17" value="Enable &amp;amp; count = 1" style="edgeLabel;html=1;align=center;verticalAlign=middle;resizable=0;points=[];" vertex="1" connectable="0" parent="MXZ9EjxYsxfjvZ3NN5oX-16">
          <mxGeometry x="-0.15" relative="1" as="geometry">
            <mxPoint as="offset" />
          </mxGeometry>
        </mxCell>
        <mxCell id="MXZ9EjxYsxfjvZ3NN5oX-3" value="CNT" style="rounded=0;whiteSpace=wrap;html=1;fontSize=16;" vertex="1" parent="1">
          <mxGeometry x="80.05000000000001" y="240" width="120" height="40" as="geometry" />
        </mxCell>
        <mxCell id="MXZ9EjxYsxfjvZ3NN5oX-19" style="edgeStyle=orthogonalEdgeStyle;rounded=0;orthogonalLoop=1;jettySize=auto;html=1;entryX=1;entryY=0.5;entryDx=0;entryDy=0;" edge="1" parent="1" source="MXZ9EjxYsxfjvZ3NN5oX-4" target="MXZ9EjxYsxfjvZ3NN5oX-1">
          <mxGeometry relative="1" as="geometry">
            <Array as="points">
              <mxPoint x="140.05" y="380" />
              <mxPoint x="270.05" y="380" />
              <mxPoint x="270.05" y="100" />
            </Array>
          </mxGeometry>
        </mxCell>
        <mxCell id="MXZ9EjxYsxfjvZ3NN5oX-20" value="Enable" style="edgeLabel;html=1;align=center;verticalAlign=middle;resizable=0;points=[];" vertex="1" connectable="0" parent="MXZ9EjxYsxfjvZ3NN5oX-19">
          <mxGeometry x="0.118" y="-1" relative="1" as="geometry">
            <mxPoint as="offset" />
          </mxGeometry>
        </mxCell>
        <mxCell id="MXZ9EjxYsxfjvZ3NN5oX-4" value="INT" style="rounded=0;whiteSpace=wrap;html=1;fontSize=16;" vertex="1" parent="1">
          <mxGeometry x="80.05000000000001" y="320" width="120" height="40" as="geometry" />
        </mxCell>
        <mxCell id="MXZ9EjxYsxfjvZ3NN5oX-5" value="" style="endArrow=classic;html=1;rounded=0;entryX=0;entryY=0;entryDx=0;entryDy=0;strokeWidth=2;" edge="1" parent="1" target="MXZ9EjxYsxfjvZ3NN5oX-1">
          <mxGeometry width="50" height="50" relative="1" as="geometry">
            <mxPoint x="40.05000000000001" y="40" as="sourcePoint" />
            <mxPoint x="120.05000000000001" y="10" as="targetPoint" />
          </mxGeometry>
        </mxCell>
        <mxCell id="MXZ9EjxYsxfjvZ3NN5oX-6" value="Enable" style="endArrow=classic;html=1;rounded=0;exitX=0.5;exitY=1;exitDx=0;exitDy=0;entryX=0.5;entryY=0;entryDx=0;entryDy=0;strokeWidth=1;fontSize=12;spacing=0;" edge="1" parent="1" source="MXZ9EjxYsxfjvZ3NN5oX-1" target="MXZ9EjxYsxfjvZ3NN5oX-2">
          <mxGeometry width="50" height="50" relative="1" as="geometry">
            <mxPoint x="180.05" y="30" as="sourcePoint" />
            <mxPoint x="230.05" y="-20" as="targetPoint" />
            <mxPoint as="offset" />
          </mxGeometry>
        </mxCell>
        <mxCell id="MXZ9EjxYsxfjvZ3NN5oX-10" style="edgeStyle=orthogonalEdgeStyle;rounded=0;orthogonalLoop=1;jettySize=auto;html=1;entryX=1;entryY=0.5;entryDx=0;entryDy=0;" edge="1" parent="1" source="MXZ9EjxYsxfjvZ3NN5oX-1" target="MXZ9EjxYsxfjvZ3NN5oX-1">
          <mxGeometry relative="1" as="geometry" />
        </mxCell>
        <mxCell id="MXZ9EjxYsxfjvZ3NN5oX-11" value="～Enable" style="edgeLabel;html=1;align=center;verticalAlign=middle;resizable=0;points=[];" vertex="1" connectable="0" parent="MXZ9EjxYsxfjvZ3NN5oX-10">
          <mxGeometry x="-0.45" y="1" relative="1" as="geometry">
            <mxPoint x="16" as="offset" />
          </mxGeometry>
        </mxCell>
        <mxCell id="MXZ9EjxYsxfjvZ3NN5oX-18" style="edgeStyle=orthogonalEdgeStyle;rounded=0;orthogonalLoop=1;jettySize=auto;html=1;entryX=1;entryY=0.5;entryDx=0;entryDy=0;" edge="1" parent="1" source="MXZ9EjxYsxfjvZ3NN5oX-4" target="MXZ9EjxYsxfjvZ3NN5oX-4">
          <mxGeometry relative="1" as="geometry">
            <Array as="points">
              <mxPoint x="140.05" y="310" />
              <mxPoint x="220.05" y="310" />
              <mxPoint x="220.05" y="340" />
            </Array>
          </mxGeometry>
        </mxCell>
        <mxCell id="MXZ9EjxYsxfjvZ3NN5oX-21" value="IDLE" style="rounded=0;whiteSpace=wrap;html=1;fontSize=16;" vertex="1" parent="1">
          <mxGeometry x="360.05" y="80" width="120" height="40" as="geometry" />
        </mxCell>
        <mxCell id="MXZ9EjxYsxfjvZ3NN5oX-22" style="edgeStyle=orthogonalEdgeStyle;rounded=0;orthogonalLoop=1;jettySize=auto;html=1;exitX=0.5;exitY=1;exitDx=0;exitDy=0;entryX=0.5;entryY=0;entryDx=0;entryDy=0;strokeWidth=1;" edge="1" parent="1" source="MXZ9EjxYsxfjvZ3NN5oX-23" target="MXZ9EjxYsxfjvZ3NN5oX-30">
          <mxGeometry relative="1" as="geometry" />
        </mxCell>
        <mxCell id="MXZ9EjxYsxfjvZ3NN5oX-23" value="LOAD" style="rounded=0;whiteSpace=wrap;html=1;fontSize=16;" vertex="1" parent="1">
          <mxGeometry x="360.05" y="160" width="120" height="40" as="geometry" />
        </mxCell>
        <mxCell id="MXZ9EjxYsxfjvZ3NN5oX-24" style="edgeStyle=orthogonalEdgeStyle;rounded=0;orthogonalLoop=1;jettySize=auto;html=1;entryX=1;entryY=0.5;entryDx=0;entryDy=0;" edge="1" parent="1" source="MXZ9EjxYsxfjvZ3NN5oX-30" target="MXZ9EjxYsxfjvZ3NN5oX-30">
          <mxGeometry relative="1" as="geometry">
            <mxPoint x="500.0500000000001" y="230" as="targetPoint" />
          </mxGeometry>
        </mxCell>
        <mxCell id="MXZ9EjxYsxfjvZ3NN5oX-25" value="Enable &amp;amp; count &amp;gt; 1" style="edgeLabel;html=1;align=center;verticalAlign=middle;resizable=0;points=[];" vertex="1" connectable="0" parent="MXZ9EjxYsxfjvZ3NN5oX-24">
          <mxGeometry x="-0.2094" relative="1" as="geometry">
            <mxPoint x="17" y="1" as="offset" />
          </mxGeometry>
        </mxCell>
        <mxCell id="MXZ9EjxYsxfjvZ3NN5oX-26" style="edgeStyle=orthogonalEdgeStyle;rounded=0;orthogonalLoop=1;jettySize=auto;html=1;entryX=0;entryY=0.5;entryDx=0;entryDy=0;" edge="1" parent="1" source="MXZ9EjxYsxfjvZ3NN5oX-30" target="MXZ9EjxYsxfjvZ3NN5oX-21">
          <mxGeometry relative="1" as="geometry">
            <Array as="points">
              <mxPoint x="320.05" y="260" />
              <mxPoint x="320.05" y="100" />
            </Array>
          </mxGeometry>
        </mxCell>
        <mxCell id="MXZ9EjxYsxfjvZ3NN5oX-27" value="～Enable" style="edgeLabel;html=1;align=center;verticalAlign=middle;resizable=0;points=[];" vertex="1" connectable="0" parent="MXZ9EjxYsxfjvZ3NN5oX-26">
          <mxGeometry x="0.0458" y="1" relative="1" as="geometry">
            <mxPoint y="6" as="offset" />
          </mxGeometry>
        </mxCell>
        <mxCell id="MXZ9EjxYsxfjvZ3NN5oX-28" style="edgeStyle=orthogonalEdgeStyle;rounded=0;orthogonalLoop=1;jettySize=auto;html=1;exitX=0.5;exitY=1;exitDx=0;exitDy=0;entryX=0.5;entryY=0;entryDx=0;entryDy=0;" edge="1" parent="1" source="MXZ9EjxYsxfjvZ3NN5oX-30" target="MXZ9EjxYsxfjvZ3NN5oX-33">
          <mxGeometry relative="1" as="geometry" />
        </mxCell>
        <mxCell id="MXZ9EjxYsxfjvZ3NN5oX-29" value="Enable &amp;amp; count = 1" style="edgeLabel;html=1;align=center;verticalAlign=middle;resizable=0;points=[];" vertex="1" connectable="0" parent="MXZ9EjxYsxfjvZ3NN5oX-28">
          <mxGeometry x="-0.15" relative="1" as="geometry">
            <mxPoint as="offset" />
          </mxGeometry>
        </mxCell>
        <mxCell id="MXZ9EjxYsxfjvZ3NN5oX-30" value="CNT" style="rounded=0;whiteSpace=wrap;html=1;fontSize=16;" vertex="1" parent="1">
          <mxGeometry x="360.05" y="240" width="120" height="40" as="geometry" />
        </mxCell>
        <mxCell id="MXZ9EjxYsxfjvZ3NN5oX-31" style="edgeStyle=orthogonalEdgeStyle;rounded=0;orthogonalLoop=1;jettySize=auto;html=1;entryX=1;entryY=0.5;entryDx=0;entryDy=0;" edge="1" parent="1" source="MXZ9EjxYsxfjvZ3NN5oX-33" target="MXZ9EjxYsxfjvZ3NN5oX-21">
          <mxGeometry relative="1" as="geometry">
            <Array as="points">
              <mxPoint x="420.05" y="380" />
              <mxPoint x="550.05" y="380" />
              <mxPoint x="550.05" y="100" />
            </Array>
          </mxGeometry>
        </mxCell>
        <mxCell id="MXZ9EjxYsxfjvZ3NN5oX-33" value="INT" style="rounded=0;whiteSpace=wrap;html=1;fontSize=16;" vertex="1" parent="1">
          <mxGeometry x="360.05" y="320" width="120" height="40" as="geometry" />
        </mxCell>
        <mxCell id="MXZ9EjxYsxfjvZ3NN5oX-34" value="" style="endArrow=classic;html=1;rounded=0;entryX=0;entryY=0;entryDx=0;entryDy=0;strokeWidth=2;" edge="1" parent="1" target="MXZ9EjxYsxfjvZ3NN5oX-21">
          <mxGeometry width="50" height="50" relative="1" as="geometry">
            <mxPoint x="320.05" y="40" as="sourcePoint" />
            <mxPoint x="400.05" y="10" as="targetPoint" />
          </mxGeometry>
        </mxCell>
        <mxCell id="MXZ9EjxYsxfjvZ3NN5oX-35" value="Enable" style="endArrow=classic;html=1;rounded=0;exitX=0.5;exitY=1;exitDx=0;exitDy=0;entryX=0.5;entryY=0;entryDx=0;entryDy=0;strokeWidth=1;fontSize=12;spacing=0;" edge="1" parent="1" source="MXZ9EjxYsxfjvZ3NN5oX-21" target="MXZ9EjxYsxfjvZ3NN5oX-23">
          <mxGeometry width="50" height="50" relative="1" as="geometry">
            <mxPoint x="460.05" y="30" as="sourcePoint" />
            <mxPoint x="510.05" y="-20" as="targetPoint" />
            <mxPoint as="offset" />
          </mxGeometry>
        </mxCell>
        <mxCell id="MXZ9EjxYsxfjvZ3NN5oX-36" style="edgeStyle=orthogonalEdgeStyle;rounded=0;orthogonalLoop=1;jettySize=auto;html=1;entryX=1;entryY=0.5;entryDx=0;entryDy=0;" edge="1" parent="1" source="MXZ9EjxYsxfjvZ3NN5oX-21" target="MXZ9EjxYsxfjvZ3NN5oX-21">
          <mxGeometry relative="1" as="geometry" />
        </mxCell>
        <mxCell id="MXZ9EjxYsxfjvZ3NN5oX-37" value="～Enable" style="edgeLabel;html=1;align=center;verticalAlign=middle;resizable=0;points=[];" vertex="1" connectable="0" parent="MXZ9EjxYsxfjvZ3NN5oX-36">
          <mxGeometry x="-0.45" y="1" relative="1" as="geometry">
            <mxPoint x="16" as="offset" />
          </mxGeometry>
        </mxCell>
      </root>
    </mxGraphModel>
  </diagram>
</mxfile>
